<svg viewBox="0 0 149 104" fill="currentColor" xmlns="http://www.w3.org/2000/svg">  <path d="M146.8 14.5C138 21.6 129.6 20.6 123.4 19.9C117.9 19.3 115.3 19.1 111.8 21.9C108.3 24.7 107.9 27.3 107.3 32.8C106.6 38.9 105.7 47.3 96.9 54.4C88.1 61.5 79.7 60.5 73.5 59.8C68 59.2 65.4 59 61.9 61.8C58.4 64.6 58 67.2 57.4 72.7C56.7 78.8 55.8 87.2 47 94.3C38.2 101.4 29.8 100.4 23.6 99.7C18.1 99.1 15.5 98.9 12 101.7L2 89.2C10.8 82.1 19.2 83.1 25.4 83.8C30.9 84.4 33.5 84.6 37 81.8C40.5 79 40.9 76.4 41.5 70.9C42.2 64.8 43.1 56.4 51.9 49.3C60.7 42.2 69.1 43.2 75.3 43.9C80.8 44.5 83.4 44.7 86.9 41.9C90.4 39.1 90.8 36.5 91.4 31C92.1 24.9 93 16.5 101.8 9.39999C110.6 2.29999 119 3.3 125.2 4C130.7 4.6 133.3 4.8 136.8 2L146.8 14.5Z" stroke="#757281" stroke-width="2" stroke-miterlimit="10" fill="#757281"></path>  <path d="M146.8 14.5C138 21.6 129.6 20.6 123.4 19.9C117.9 19.3 115.3 19.1 111.8 21.9C108.3 24.7 107.9 27.3 107.3 32.8C106.6 38.9 105.7 47.3 96.9 54.4C88.1 61.5 79.7 60.5 73.5 59.8C68 59.2 65.4 59 61.9 61.8C58.4 64.6 58 67.2 57.4 72.7C56.7 78.8 55.8 87.2 47 94.3C38.2 101.4 29.8 100.4 23.6 99.7C18.1 99.1 15.5 98.9 12 101.7L2 89.2C10.8 82.1 19.2 83.1 25.4 83.8C30.9 84.4 33.5 84.6 37 81.8C40.5 79 40.9 76.4 41.5 70.9C42.2 64.8 43.1 56.4 51.9 49.3C60.7 42.2 69.1 43.2 75.3 43.9C80.8 44.5 83.4 44.7 86.9 41.9C90.4 39.1 90.8 36.5 91.4 31C92.1 24.9 93 16.5 101.8 9.39999C110.6 2.29999 119 3.3 125.2 4C130.7 4.6 133.3 4.8 136.8 2L146.8 14.5Z" stroke="#757281" stroke-width="2" stroke-miterlimit="10" fill="#757281"></path></svg>
